<svg xmlns="http://www.w3.org/2000/svg" xmlns:xlink="http://www.w3.org/1999/xlink" version="1.1" width="256" height="256" viewBox="0 0 256 256" xml:space="preserve">
<desc>Created with Fabric.js 1.7.22</desc>
<defs>
</defs>
<g transform="translate(128 128) scale(0.72 0.72)" style="">
	<g style="stroke: none; stroke-width: 0; stroke-dasharray: none; stroke-linecap: butt; stroke-linejoin: miter; stroke-miterlimit: 10; fill: none; fill-rule: nonzero; opacity: 1;" transform="translate(-175.05 -175.05000000000004) scale(3.89 3.89)" >
	<path d="M 88.501 44.116 c -0.514 0 -1.014 -0.264 -1.293 -0.738 C 78.434 28.49 62.261 19.242 45 19.242 c -17.26 0 -33.434 9.249 -42.208 24.136 c -0.42 0.714 -1.339 0.951 -2.054 0.531 c -0.713 -0.421 -0.951 -1.34 -0.531 -2.054 C 9.519 26.056 26.682 16.242 45 16.242 c 18.317 0 35.481 9.814 44.792 25.613 c 0.421 0.714 0.184 1.633 -0.53 2.054 C 89.022 44.049 88.76 44.116 88.501 44.116 z" style="stroke: none; stroke-width: 1; stroke-dasharray: none; stroke-linecap: butt; stroke-linejoin: miter; stroke-miterlimit: 10; fill: rgb(255,255,255); fill-rule: nonzero; opacity: 1;" transform=" matrix(1 0 0 1 0 0) " stroke-linecap="round" />
	<path d="M 73.501 52.938 c -0.514 0 -1.014 -0.264 -1.293 -0.738 C 66.552 42.602 56.126 36.641 45 36.641 s -21.551 5.962 -27.208 15.559 c -0.42 0.714 -1.339 0.953 -2.054 0.53 c -0.714 -0.421 -0.951 -1.34 -0.53 -2.054 C 21.401 40.168 32.817 33.641 45 33.641 c 12.184 0 23.6 6.527 29.792 17.035 c 0.421 0.714 0.184 1.634 -0.53 2.054 C 74.022 52.871 73.76 52.938 73.501 52.938 z" style="stroke: none; stroke-width: 1; stroke-dasharray: none; stroke-linecap: butt; stroke-linejoin: miter; stroke-miterlimit: 10; fill: rgb(255,255,255); fill-rule: nonzero; opacity: 1;" transform=" matrix(1 0 0 1 0 0) " stroke-linecap="round" />
	<path d="M 58.501 61.759 c -0.514 0 -1.014 -0.264 -1.293 -0.738 C 54.67 56.714 49.992 54.039 45 54.039 c -4.992 0 -9.669 2.675 -12.208 6.981 c -0.419 0.714 -1.338 0.954 -2.054 0.53 c -0.714 -0.421 -0.951 -1.34 -0.53 -2.054 c 3.075 -5.217 8.743 -8.458 14.792 -8.458 s 11.717 3.241 14.792 8.458 c 0.421 0.714 0.184 1.633 -0.53 2.054 C 59.022 61.692 58.76 61.759 58.501 61.759 z" style="stroke: none; stroke-width: 1; stroke-dasharray: none; stroke-linecap: butt; stroke-linejoin: miter; stroke-miterlimit: 10; fill: rgb(255,255,255); fill-rule: nonzero; opacity: 1;" transform=" matrix(1 0 0 1 0 0) " stroke-linecap="round" />
	<path d="M 45 73.759 c -3.065 0 -5.56 -2.494 -5.56 -5.561 c 0 -3.065 2.494 -5.56 5.56 -5.56 s 5.56 2.494 5.56 5.56 C 50.56 71.265 48.065 73.759 45 73.759 z M 45 65.639 c -1.411 0 -2.56 1.148 -2.56 2.56 c 0 1.412 1.148 2.561 2.56 2.561 s 2.56 -1.148 2.56 -2.561 C 47.56 66.787 46.411 65.639 45 65.639 z" style="stroke: none; stroke-width: 1; stroke-dasharray: none; stroke-linecap: butt; stroke-linejoin: miter; stroke-miterlimit: 10; fill: rgb(255,255,255); fill-rule: nonzero; opacity: 1;" transform=" matrix(1 0 0 1 0 0) " stroke-linecap="round" />
</g>
</g>
</svg>